<svg width="1440" height="5044" viewBox="0 0 1440 5044" fill="none" xmlns="http://www.w3.org/2000/svg">
<path opacity="0.1" d="M48 2V5042M96 2V5042M144 2V5042M192 2V5042M240 2V5042M288 2V5042M336 2V5042M384 2V5042M432 2V5042M480 2V5042M528 2V5042M576 2V5042M624 2V5042M672 2V5042M720 2V5042M768 2V5042M816 2V5042M864 2V5042M912 2V5042M960 2V5042M1008 2V5042M1056 2V5042M1104 2V5042M1152 2V5042M1200 2V5042M1248 2V5042M1296 2V5042M1344 2V5042M1392 2V5042M0 50H1440M0 98H1440M0 145.5H1440M0 193.5H1440M0 242H1440M0 290H1440M0 338H1440M0 386H1440M0 434H1440M0 481.5H1440M0 529.5H1440M0 578H1440M0 626H1440M0 674H1440M0 722H1440M0 770H1440M0 817.5H1440M0 865.5H1440M0 914H1440M0 962H1440M0 1010H1440M0 1058H1440M0 1106H1440M0 1153.5H1440M0 1201.5H1440M0 1250H1440M0 1298H1440M0 1346H1440M0 1394.5H1440M0 1442.5H1440M0 1490H1440M0 1538H1440M0 1586.5H1440M0 1634.5H1440M0 1682.5H1440M0 1730.5H1440M0 1778.5H1440M0 1826H1440M0 1874H1440M0 1922.5H1440M0 1970.5H1440M0 2018.5H1440M0 2066.5H1440M0 2114.5H1440M0 2162H1440M0 2210H1440M0 2258.5H1440M0 2306.5H1440M0 2354.5H1440M0 2402.5H1440M0 2450.5H1440M0 2498H1440M0 2546H1440M0 2594.5H1440M0 2642.5H1440M0 2690.5H1440M0 2738H1440M0 2786H1440M0 2833.5H1440M0 2881.5H1440M0 2930H1440M0 2978H1440M0 3026H1440M0 3074H1440M0 3122H1440M0 3169.5H1440M0 3217.5H1440M0 3266H1440M0 3314H1440M0 3362H1440M0 3410H1440M0 3458H1440M0 3505.5H1440M0 3553.5H1440M0 3602H1440M0 3650H1440M0 3698H1440M0 3746H1440M0 3794H1440M0 3841.5H1440M0 3889.5H1440M0 3938H1440M0 3986H1440M0 4034H1440M0 4082H1440M0 4130H1440M0 4177.5H1440M0 4225.5H1440M0 4274H1440M0 4322H1440M0 4370H1440M0 4418H1440M0 4466H1440M0 4513.5H1440M0 4561.5H1440M0 4610H1440M0 4658H1440M0 4706H1440M0 4754H1440M0 4802H1440M0 4849.5H1440M0 4897.5H1440M0 4946H1440M0 4994H1440M0 5042H1440V2H0V5042Z" stroke="white" stroke-width="4"/>
</svg>
