<svg width="14" height="15" viewBox="0 0 14 15" fill="none" xmlns="http://www.w3.org/2000/svg">
<path fill-rule="evenodd" clip-rule="evenodd" d="M6.96889 6C7.761 6 8.52067 5.68393 9.08078 5.12132C9.64089 4.55871 9.95556 3.79565 9.95556 3C9.95556 2.20435 9.64089 1.44129 9.08078 0.87868C8.52067 0.316071 7.761 0 6.96889 0C6.17678 0 5.41711 0.316071 4.857 0.87868C4.29689 1.44129 3.98222 2.20435 3.98222 3C3.98222 3.79565 4.29689 4.55871 4.857 5.12132C5.41711 5.68393 6.17678 6 6.96889 6ZM0 15C-1.36371e-08 14.0807 0.180256 13.1705 0.530475 12.3212C0.880695 11.4719 1.39402 10.7003 2.04114 10.0503C2.68826 9.40024 3.45651 8.88463 4.30201 8.53284C5.14752 8.18106 6.05372 8 6.96889 8C7.88406 8 8.85248 8.18106 9.69799 8.53284C10.5435 8.88463 11.3117 9.40024 11.9589 10.0503C12.606 10.7003 13.1193 11.4719 13.4695 12.3212C13.8197 13.1705 14 14.0807 14 15H0Z" fill="black"/>
</svg>
