<svg width="227" height="32" viewBox="0 0 227 32" fill="none" xmlns="http://www.w3.org/2000/svg">
<path opacity="0.5" d="M0.609375 32H8.29688L11.0156 19.8828H23.7422L25.2891 12.7109H12.6328L13.5703 8.5625C13.6484 8.32812 13.7734 8.14062 13.9453 8C14.1328 7.85938 14.3125 7.78906 14.4844 7.78906H20.5547V7.76562H33.1172L34.7578 0.59375H13.1719C9.9375 0.59375 7.71875 2.32812 6.51562 5.79688L0.609375 32ZM31.8516 23.9375C31.3984 26.0625 31.8672 27.9375 33.2578 29.5625C34.6484 31.1875 36.4609 32 38.6953 32H57.4219C57.6094 31.2344 57.7891 30.4844 57.9609 29.75C58.3672 28 58.75 26.3594 59.1094 24.8281H50.4141V24.8047H40.6406C40.3438 24.8047 40.1016 24.6953 39.9141 24.4766C39.7266 24.2578 39.6562 24 39.7031 23.7031L41.0859 17.8203H41.0625L45.0703 0.59375H42.8438C41.2188 0.59375 39.7812 1.07031 38.5312 2.02344C37.2812 2.96094 36.4688 4.21875 36.0938 5.79688L31.8516 23.9375ZM62.3906 23.9375C61.9531 26.0625 62.4141 27.9375 63.7734 29.5625C65.1484 31.1875 66.9375 32 69.1406 32H87.6562C88.2656 29.4062 88.8203 27.0156 89.3203 24.8281H80.7422V24.8047H71.0625C70.7812 24.8047 70.5469 24.6953 70.3594 24.4766C70.1719 24.2578 70.1016 24 70.1484 23.7031L71.0391 19.8828H83.8359L85.4297 12.7109H72.7031L73.6641 8.5625C73.7422 8.32812 73.875 8.14062 74.0625 8C74.25 7.85938 74.4297 7.78906 74.6016 7.78906H80.6719H93.2812L94.9453 0.59375H73.2891C70.0547 0.59375 67.8281 2.32812 66.6094 5.79688L62.3906 23.9375ZM90.8438 32H100.828C102.5 30.3125 105.273 27.3828 109.148 23.2109C111.086 27.3828 112.492 30.3125 113.367 32H123.352L115.711 16.2031C121.055 10.4688 126.039 5.26562 130.664 0.59375H120.68L112.383 9.33594L108.141 0.59375H98.1562C100.609 5.26562 103.172 10.4688 105.844 16.2031L90.8438 32ZM125.953 23.9375C125.516 26.0625 125.977 27.9375 127.336 29.5625C128.711 31.1875 130.5 32 132.703 32H151.219C151.828 29.4062 152.383 27.0156 152.883 24.8281H144.305V24.8047H134.625C134.344 24.8047 134.109 24.6953 133.922 24.4766C133.734 24.2578 133.664 24 133.711 23.7031L134.602 19.8828H147.398L148.992 12.7109H136.266L137.227 8.5625C137.305 8.32812 137.438 8.14062 137.625 8C137.812 7.85938 137.992 7.78906 138.164 7.78906H144.234H156.844L158.508 0.59375H136.852C133.617 0.59375 131.391 2.32812 130.172 5.79688L125.953 23.9375ZM154.594 32C154.609 32 154.641 32 154.688 32C154.734 32 154.805 32 154.898 32C154.992 32 155.125 32 155.297 32C155.469 32 155.688 32 155.953 32C156.234 32 156.57 32 156.961 32C157.352 32 157.812 32 158.344 32C158.891 32 159.516 32 160.219 32C160.922 32 161.711 32 162.586 32C163.477 32 164.469 32 165.562 32C166.656 32 167.867 32 169.195 32C170.523 32 171.977 32 173.555 32C175.133 32 176.852 32 178.711 32C181.945 32 184.188 30.2656 185.438 26.7969C185.438 26.7812 185.445 26.7578 185.461 26.7266C185.477 26.6797 185.492 26.6094 185.508 26.5156C185.539 26.4219 185.57 26.2969 185.602 26.1406C185.648 25.9688 185.703 25.7578 185.766 25.5078C185.828 25.2422 185.898 24.9219 185.977 24.5469C186.07 24.1562 186.18 23.7109 186.305 23.2109C186.43 22.6953 186.57 22.1016 186.727 21.4297C186.883 20.7578 187.062 20 187.266 19.1562C187.469 18.2969 187.695 17.3438 187.945 16.2969C188.211 15.25 188.492 14.0938 188.789 12.8281C189.086 11.5625 189.422 10.1719 189.797 8.65625C190.25 6.53125 189.797 4.65625 188.438 3.03125C187.078 1.40625 185.297 0.59375 183.094 0.59375C183.094 0.59375 183.086 0.59375 183.07 0.59375C183.07 0.59375 183.047 0.59375 183 0.59375C182.969 0.59375 182.906 0.59375 182.812 0.59375C182.734 0.59375 182.609 0.59375 182.438 0.59375C182.281 0.59375 182.078 0.59375 181.828 0.59375C181.594 0.59375 181.297 0.59375 180.938 0.59375C180.578 0.59375 180.148 0.59375 179.648 0.59375C179.164 0.59375 178.602 0.59375 177.961 0.59375C177.336 0.59375 176.617 0.59375 175.805 0.59375C174.992 0.59375 174.086 0.59375 173.086 0.59375C172.102 0.59375 171 0.59375 169.781 0.59375C168.578 0.59375 167.258 0.59375 165.82 0.59375C164.773 0.59375 163.82 0.914063 162.961 1.55469C162.117 2.17969 161.562 3 161.297 4.01562C161.297 4.01562 161.289 4.02344 161.273 4.03906C161.273 4.03906 161.266 4.0625 161.25 4.10938C161.25 4.14062 161.242 4.20312 161.227 4.29688C161.211 4.39062 161.18 4.51562 161.133 4.67188C161.102 4.82812 161.055 5.03906 160.992 5.30469C160.93 5.55469 160.852 5.86719 160.758 6.24219C160.68 6.60156 160.578 7.03125 160.453 7.53125C160.328 8.01562 160.188 8.58594 160.031 9.24219C159.875 9.89844 159.695 10.6406 159.492 11.4688C159.305 12.2812 159.086 13.1953 158.836 14.2109C158.602 15.2266 158.336 16.3516 158.039 17.5859C157.742 18.8203 157.414 20.1719 157.055 21.6406C156.711 23.1094 156.336 24.7031 155.93 26.4219C155.523 28.1406 155.078 30 154.594 32ZM178.148 24.8047C178.148 24.8047 178.141 24.8047 178.125 24.8047C178.125 24.8047 178.102 24.8047 178.055 24.8047C178.023 24.8047 177.961 24.8047 177.867 24.8047C177.773 24.8047 177.641 24.8047 177.469 24.8047C177.297 24.8047 177.078 24.8047 176.812 24.8047C176.562 24.8047 176.242 24.8047 175.852 24.8047C175.477 24.8047 175.031 24.8047 174.516 24.8047C174.016 24.8047 173.43 24.8047 172.758 24.8047C172.086 24.8047 171.32 24.8047 170.461 24.8047C169.617 24.8047 168.664 24.8047 167.602 24.8047C166.555 24.8047 165.391 24.8047 164.109 24.8047C164.125 24.7891 164.133 24.7656 164.133 24.7344C164.148 24.7031 164.164 24.6406 164.18 24.5469C164.211 24.4531 164.242 24.3281 164.273 24.1719C164.305 24.0156 164.352 23.8203 164.414 23.5859C164.477 23.3359 164.547 23.0391 164.625 22.6953C164.719 22.3359 164.82 21.9141 164.93 21.4297C165.055 20.9453 165.188 20.3906 165.328 19.7656C165.484 19.1406 165.656 18.4297 165.844 17.6328C166.047 16.8359 166.266 15.9453 166.5 14.9609C166.734 13.9766 166.992 12.8906 167.273 11.7031C167.57 10.5 167.891 9.19531 168.234 7.78906C168.25 7.78906 168.273 7.78906 168.305 7.78906C168.352 7.78906 168.414 7.78906 168.492 7.78906C168.586 7.78906 168.703 7.78906 168.844 7.78906C169 7.78906 169.195 7.78906 169.43 7.78906C169.68 7.78906 169.977 7.78906 170.32 7.78906C170.664 7.78906 171.07 7.78906 171.539 7.78906C172.023 7.78906 172.57 7.78906 173.18 7.78906C173.805 7.78906 174.508 7.78906 175.289 7.78906C176.07 7.78906 176.938 7.78906 177.891 7.78906C178.859 7.78906 179.93 7.78906 181.102 7.78906C181.383 7.78906 181.617 7.89844 181.805 8.11719C181.992 8.33594 182.062 8.59375 182.016 8.89062C182.016 8.89062 182.016 8.89844 182.016 8.91406C182.016 8.91406 182.008 8.92969 181.992 8.96094C181.992 8.99219 181.977 9.05469 181.945 9.14844C181.93 9.22656 181.906 9.33594 181.875 9.47656C181.844 9.61719 181.797 9.80469 181.734 10.0391C181.688 10.2734 181.617 10.5547 181.523 10.8828C181.445 11.2109 181.352 11.6016 181.242 12.0547C181.133 12.5078 181.008 13.0312 180.867 13.625C180.727 14.2031 180.562 14.8672 180.375 15.6172C180.203 16.3516 180 17.1797 179.766 18.1016C179.547 19.0234 179.305 20.0391 179.039 21.1484C178.773 22.2578 178.477 23.4766 178.148 24.8047ZM187.125 32H194.602L202.172 0.59375H200.18C197.086 0.59375 194.875 2.32812 193.547 5.79688L187.125 32ZM199.336 23.9375C198.883 26.0625 199.352 27.9375 200.742 29.5625C202.133 31.1875 203.945 32 206.18 32H224.906C225.094 31.2344 225.273 30.4844 225.445 29.75C225.852 28 226.234 26.3594 226.594 24.8281H217.898V24.8047H208.125C207.828 24.8047 207.586 24.6953 207.398 24.4766C207.211 24.2578 207.141 24 207.188 23.7031L208.57 17.8203H208.547L212.555 0.59375H210.328C208.703 0.59375 207.266 1.07031 206.016 2.02344C204.766 2.96094 203.953 4.21875 203.578 5.79688L199.336 23.9375Z" fill="white"/>
</svg>
